<svg xmlns="http://www.w3.org/2000/svg" width="32" height="32" id="compass"><path fill-rule="evenodd" d="M16 0C7.17 0 0 7.17 0 16s7.17 16 16 16 16-7.17 16-16S24.83 0 16 0zm0 1c8.29 0 15 6.71 15 15s-6.71 15-15 15S1 24.29 1 16 7.71 1 16 1zm0 2C8.826 3 3 8.826 3 16s5.826 13 13 13 13-5.826 13-13S23.174 3 16 3zm0 1c6.633 0 12 5.367 12 12s-5.367 12-12 12S4 22.633 4 16 9.367 4 16 4zm-.5 1v2h1V5h-1zM8.576 7.87l-.707.706L9.283 9.99l.707-.707L8.576 7.87zm14.848 0L22.01 9.282l.707.707 1.414-1.414-.707-.707zM9.986 9.995l4.213 7.21.016.02.32.432 7.479 4.346-4.06-7.723-.554-.351-7.414-3.934zm2.639 2.533 2.703 1.434a2.116 2.116 0 0 0-.853.512 2.107 2.107 0 0 0-.39.554l-1.46-2.5zM16 14.84c.295 0 .59.117.818.345a1.148 1.148 0 0 1 0 1.634 1.15 1.15 0 0 1-1.636 0 1.148 1.148 0 0 1 0-1.634c.228-.228.523-.344.818-.344zM5 15.5v1h2v-1H5zm20 0v1h2v-1h-2zm-6.947 1.121 1.457 2.772-2.543-1.479c.2-.1.392-.222.558-.389.26-.26.429-.573.528-.904zm-8.77 5.39L7.87 23.427l.707.707 1.414-1.414-.707-.707zm13.434 0-.707.708 1.414 1.414.707-.707-1.414-1.414zM15.5 25v2h1v-2h-1z" color="#000" font-family="sans-serif" font-weight="400" overflow="visible" style="line-height:normal;text-indent:0;text-align:start;text-decoration-line:none;text-decoration-style:solid;text-decoration-color:#000;text-transform:none;block-progression:tb;white-space:normal;isolation:auto;mix-blend-mode:normal;solid-color:#000;solid-opacity:1"></path></svg>